<svg xmlns="http://www.w3.org/2000/svg" viewBox="0 0 270.93333 270.93333">
  <path d="M-4e-8-4e-8h270.93332v270.93332H-4e-8z"
    style="fill:#8547b2;fill-opacity:1;stroke-width:.264583;image-rendering:auto" />
  <path d="M.11238392.11238392h79.15023v79.15023h-79.15023z"
    style="display:inline;fill:#ffce00;fill-opacity:1;stroke:#fff;stroke-width:.79375;stroke-dasharray:none;stroke-opacity:1"
    transform="translate(53.4458967 53.4458967)" />
  <g
    style="font-weight:500;font-size:87.6297px;font-family:&quot;Noto Sans Mono&quot;;-inkscape-font-specification:&quot;Noto Sans Mono, Medium&quot;;fill:none;stroke:#fff;stroke-width:.608538">
    <path stroke="none"
      d="m77.639812 127.19441-6.309339-62.567603h8.324822q.701037 7.010376 1.139186 12.355787.525778 5.345412.788667 9.902156.350519 4.469115.701038 8.76297.262889 3.768077.525778 8.23719.350519 4.38149.525778 8.23719.17526 3.85571.17526 5.87119h.350518q.350519-2.27837.963927-5.6083t1.226816-6.57222q.613408-3.32993 1.139186-5.69593l4.206226-20.154836h8.938225l4.29386 20.330086q.70104 2.89178 1.31444 6.13408.70104 3.2423 1.31445 6.30934.61341 3.06704.96393 5.34541h.26289q0-2.366.0876-6.13408.17526-3.8557.35051-8.32482.26289-4.556741.61341-9.025856.26289-3.943337.61341-8.237192.35052-4.293855.70104-9.551637.43815-5.257782 1.05155-12.180528h8.32483l-5.69593 62.567603h-10.69083l-5.783558-26.5518q-.788638-3.592814-1.314416-6.659854-.438148-3.067039-.701037-4.819633h-.350519q-.17526 1.752594-.701038 4.819633-.438148 3.06704-1.226816 6.659854l-5.6083 26.5518z"
      aria-label="W" style="fill:#fff;stroke:none;stroke-linecap:round;stroke-linejoin:bevel"
      transform="translate(-2.6457643 -2.6457643)" />
  </g>
  <path d="M.112384 79.487381h79.15023v79.15023H.112384z"
    style="display:inline;fill:#51d23e;fill-opacity:1;stroke:#fff;stroke-width:.79375;stroke-dasharray:none;stroke-opacity:1"
    transform="translate(53.4458966 58.7375652)" />
  <g
    style="font-weight:500;font-size:87.6297px;font-family:&quot;Noto Sans Mono&quot;;-inkscape-font-specification:&quot;Noto Sans Mono, Medium&quot;;fill:none;stroke:#fff;stroke-width:.608538">
    <path stroke="none"
      d="M74.616591 206.43796v-62.56761h15.247568q11.041341 0 16.562011 4.55675 5.6083 4.55674 5.6083 13.31971 0 7.18564-3.32993 11.2166-3.24229 4.03097-8.14956 6.04645l16.38676 27.4281h-10.16505l-14.4589-24.97447h-8.412451v24.97447zm14.984679-32.94877q6.835116 0 9.902156-2.80415 3.067044-2.89178 3.067044-8.32482 0-5.69593-3.242304-8.06193-3.154669-2.45364-9.989786-2.45364h-5.433041v21.64454z"
      aria-label="R" style="fill:#fff;stroke:none;stroke-linecap:round;stroke-linejoin:bevel"
      transform="translate(-2.6457644 2.6459042)" />
  </g>
  <path d="M79.487381 79.487381h79.15023v79.15023h-79.15023z"
    style="display:inline;fill:#d9233b;fill-opacity:1;stroke:#fff;stroke-width:.79375;stroke-dasharray:none;stroke-opacity:1"
    transform="translate(58.7375652 58.7375652)" />
  <g
    style="font-weight:500;font-size:87.6297px;font-family:&quot;Noto Sans Mono&quot;;-inkscape-font-specification:&quot;Noto Sans Mono, Medium&quot;;fill:none;stroke:#fff;stroke-width:.608538">
    <path stroke="none"
      d="M153.42199 206.43796v-62.56761h16.38676q8.23719 0 14.28364 3.50519 6.13408 3.41756 9.464 10.25268 3.32993 6.83511 3.32993 16.91253 0 15.68571-7.62378 23.83528-7.53615 8.06193-21.03113 8.06193zm14.10838-7.9743q10.16505 0 14.98468-5.95882 4.90727-5.95882 4.90727-17.7012 0-11.91764-4.90727-17.43831-4.81963-5.52068-13.49497-5.52068h-6.39697v46.61901z"
      aria-label="D" style="fill:#fff;stroke:none;stroke-linecap:round;stroke-linejoin:bevel"
      transform="translate(2.6459042 2.6459042)" />
  </g>
  <path d="M79.487381.112384h79.15023v79.15023h-79.15023z"
    style="display:inline;fill:#646464;fill-opacity:1;stroke:#fff;stroke-width:.79375;stroke-dasharray:none;stroke-opacity:1"
    transform="translate(58.7375652 53.4458966)" />
  <g
    style="font-weight:500;font-size:87.6297px;font-family:&quot;Noto Sans Mono&quot;;-inkscape-font-specification:&quot;Noto Sans Mono, Medium&quot;;fill:none;stroke:#fff;stroke-width:.608538">
    <path stroke="none"
      d="M174.1026 127.93927q-7.88667 0-12.88156-3.94334-4.9949-4.03096-7.3609-11.2166-2.366-7.27326-2.366-17.00016 0-9.814526 2.366-17.000162 2.366-7.273265 7.3609-11.304231 5.08252-4.030966 12.96919-4.030966t12.88157 4.030966q5.08252 3.943337 7.44852 11.216602 2.366 7.185635 2.366 16.912532 0 9.902159-2.366 17.175419-2.366 7.18564-7.44852 11.2166-4.9949 3.94334-12.9692 3.94334zm.17526-8.14956q7.18564 0 10.16505-6.30934 2.97941-6.30934 2.97941-17.788829 0-11.479491-2.97941-17.78883-2.89178-6.309338-10.16505-6.309338-7.27326 0-10.3403 6.396968-2.97941 6.309339-2.97941 17.7012 0 11.479489 2.97941 17.788829 3.06704 6.30934 10.3403 6.30934z"
      aria-label="O" style="fill:#fff;stroke:none;stroke-linecap:round;stroke-linejoin:bevel"
      transform="translate(2.6459042 -2.6457644)" />
  </g>
</svg>
